<svg width="47" height="196" viewBox="0 0 47 196" fill="none" xmlns="http://www.w3.org/2000/svg">
<path d="M2 0.0999832V-0.900017H1.11954L1.00805 -0.0266495L2 0.0999832ZM46.1 0.0999832L47.0924 0.223082L47.2317 -0.900017H46.1V0.0999832ZM21.8 196V197H22.6836L22.7924 196.123L21.8 196ZM7.1 196L6.10738 195.879L5.97046 197H7.1V196ZM29.3 14.2L30.2926 14.3212L30.4295 13.2H29.3V14.2ZM0.200001 14.2L-0.791946 14.0734L-0.935772 15.2H0.200001V14.2ZM2 1.09998H46.1V-0.900017H2V1.09998ZM45.1076 -0.0231171L20.8076 195.877L22.7924 196.123L47.0924 0.223082L45.1076 -0.0231171ZM21.8 195H7.1V197H21.8V195ZM8.09263 196.121L30.2926 14.3212L28.3074 14.0788L6.10738 195.879L8.09263 196.121ZM29.3 13.2H0.200001V15.2H29.3V13.2ZM1.19195 14.3266L2.99195 0.226614L1.00805 -0.0266495L-0.791946 14.0734L1.19195 14.3266Z" fill="#F3AD33"/>
</svg>
