<svg width="128" height="199" viewBox="0 0 128 199" fill="none" xmlns="http://www.w3.org/2000/svg">
<path d="M0 199L-0.659508 198.248L-2.65607 200H0V199ZM51.9 150.7L51.1878 149.998L51.1877 149.998L51.9 150.7ZM83.7 115L84.4962 115.605L83.7 115ZM100.2 89.5L101.1 89.9369V89.9369L100.2 89.5ZM106.5 71.2L107.488 71.3521L107.489 71.3465L106.5 71.2ZM101.7 32.5L100.86 33.0421L100.864 33.0484L100.868 33.0547L101.7 32.5ZM86.1 19L85.6756 19.9055L85.6873 19.911L85.6992 19.9161L86.1 19ZM40.5 20.2L39.9774 19.3474L39.9712 19.3512L39.965 19.3552L40.5 20.2ZM27 34.3L26.1184 33.8277L26.1122 33.8397L27 34.3ZM21.3 50.5L20.3167 50.3179L20.3139 50.3329L20.3116 50.3479L21.3 50.5ZM21.9 78.4L20.9298 78.6425L20.9324 78.6524L21.9 78.4ZM27.9 90.7L28.5449 91.4643L29.2793 90.8446L28.6894 90.0861L27.9 90.7ZM18.3 98.8L17.4936 99.3914L18.1267 100.255L18.9449 99.5643L18.3 98.8ZM12 88.9L11.1258 89.3856L12 88.9ZM7.2 77.2L6.22487 77.4216L6.23095 77.4483L6.23848 77.4747L7.2 77.2ZM7.8 45.1L8.78058 45.2961L7.8 45.1ZM16.2 24.4L17.0508 24.9255L16.2 24.4ZM34.2 7.6L34.6913 8.471L34.6985 8.4669L34.2 7.6ZM92.7 6.39999L92.3036 7.31809L92.311 7.32124L92.7 6.39999ZM114.6 24.1L113.781 24.6735L113.786 24.6803L113.79 24.687L114.6 24.1ZM122.7 55.3L121.7 55.2688L121.7 55.2737L122.7 55.3ZM106.2 105.4L105.363 104.853L105.359 104.859L105.355 104.865L106.2 105.4ZM31.2 187.9L30.7343 188.785L31.3615 189.115L31.8807 188.633L31.2 187.9ZM25.5 184.9V183.9L25.0343 185.785L25.5 184.9ZM127.2 184.9L128.192 185.027L128.336 183.9H127.2V184.9ZM125.4 199V200H126.28L126.392 199.127L125.4 199ZM0.65951 199.752C21.87 181.142 39.1894 165.025 52.6123 151.402L51.1877 149.998C37.8106 163.575 20.53 179.658 -0.659508 198.248L0.65951 199.752ZM52.6123 151.402C66.2281 137.586 76.8604 125.652 84.4962 115.605L82.9038 114.395C75.3396 124.348 64.772 136.214 51.1878 149.998L52.6123 151.402ZM84.4962 115.605C92.115 105.58 97.6587 97.021 101.1 89.9369L99.3005 89.0631C95.9413 95.979 90.485 104.42 82.9038 114.395L84.4962 115.605ZM101.1 89.9369C104.524 82.8857 106.668 76.686 107.488 71.3521L105.512 71.0479C104.732 76.114 102.676 82.1143 99.3005 89.0631L101.1 89.9369ZM107.489 71.3465C108.295 65.909 108.7 60.9591 108.7 56.5H106.7C106.7 60.8409 106.305 65.6909 105.511 71.0534L107.489 71.3465ZM108.7 56.5C108.7 46.3764 106.676 38.1618 102.532 31.9453L100.868 33.0547C104.724 38.8382 106.7 46.6236 106.7 56.5H108.7ZM102.54 31.9579C98.44 25.6025 93.0913 20.9671 86.5008 18.0838L85.6992 19.9161C91.9088 22.6328 96.96 26.9975 100.86 33.0421L102.54 31.9579ZM86.5244 18.0945C79.9818 15.0277 72.8355 13.5 65.1 13.5V15.5C72.5645 15.5 79.4182 16.9723 85.6756 19.9055L86.5244 18.0945ZM65.1 13.5C54.7865 13.5 46.3858 15.4197 39.9774 19.3474L41.0226 21.0526C47.0142 17.3803 55.0136 15.5 65.1 15.5V13.5ZM39.965 19.3552C33.8368 23.2363 29.2092 28.0585 26.1185 33.8278L27.8815 34.7722C30.7908 29.3415 35.1632 24.7637 41.0351 21.0448L39.965 19.3552ZM26.1122 33.8397C23.2717 39.3179 21.3365 44.8112 20.3167 50.3179L22.2833 50.6821C23.2635 45.3888 25.1283 40.0821 27.8878 34.7603L26.1122 33.8397ZM20.3116 50.3479C19.5087 55.5668 19.1 59.7249 19.1 62.8H21.1C21.1 59.8751 21.4913 55.8332 22.2884 50.652L20.3116 50.3479ZM19.1 62.8C19.1 68.4712 19.7076 73.7536 20.9299 78.6425L22.8701 78.1575C21.6924 73.4464 21.1 68.3288 21.1 62.8H19.1ZM20.9324 78.6524C22.1652 83.3781 24.2238 87.6022 27.1107 91.3139L28.6894 90.0861C25.9762 86.5977 24.0348 82.6219 22.8676 78.1476L20.9324 78.6524ZM27.2551 89.9357L17.6551 98.0357L18.9449 99.5643L28.5449 91.4643L27.2551 89.9357ZM19.1064 98.2086C16.9336 95.2458 14.8559 91.9816 12.8742 88.4144L11.1258 89.3856C13.1441 93.0184 15.2664 96.3542 17.4936 99.3914L19.1064 98.2086ZM12.8742 88.4144C10.9134 84.885 9.34182 81.0563 8.16153 76.9253L6.23848 77.4747C7.45819 81.7437 9.08659 85.715 11.1258 89.3856L12.8742 88.4144ZM8.17513 76.9784C7.19268 72.6556 6.7 68.1301 6.7 63.4H4.7C4.7 68.2698 5.20733 72.9444 6.22487 77.4216L8.17513 76.9784ZM6.7 63.4C6.7 58.285 7.38909 52.2536 8.78058 45.2961L6.81942 44.9039C5.41091 51.9464 4.7 58.1149 4.7 63.4H6.7ZM8.78058 45.2961C10.1546 38.4258 12.9059 31.6363 17.0508 24.9255L15.3492 23.8745C11.0941 30.7637 8.24537 37.7741 6.81942 44.9039L8.78058 45.2961ZM17.0508 24.9255C21.1518 18.2858 27.0204 12.7982 34.6913 8.47097L33.7087 6.72902C25.7796 11.2018 19.6482 16.9142 15.3492 23.8745L17.0508 24.9255ZM34.6985 8.4669C42.4973 3.9826 52.8072 1.7 65.7 1.7V-0.300003C52.5928 -0.300003 41.9027 2.01739 33.7015 6.73309L34.6985 8.4669ZM65.7 1.7C74.7579 1.7 83.6234 3.5698 92.3036 7.31806L93.0964 5.48193C84.1766 1.63019 75.0421 -0.300003 65.7 -0.300003V1.7ZM92.311 7.32124C101.138 11.0481 108.289 16.8276 113.781 24.6735L115.419 23.5265C109.711 15.3724 102.262 9.35187 93.089 5.47874L92.311 7.32124ZM113.79 24.687C119.426 32.4606 122.096 42.6242 121.7 55.2688L123.7 55.3312C124.104 42.3758 121.374 31.7393 115.41 23.513L113.79 24.687ZM121.7 55.2737C121.503 62.786 120.316 70.5057 118.136 78.4348L120.064 78.9651C122.284 70.8943 123.497 63.014 123.7 55.3263L121.7 55.2737ZM118.136 78.4348C115.972 86.3033 111.727 95.1073 105.363 104.853L107.037 105.947C113.473 96.0927 117.828 87.0967 120.064 78.9651L118.136 78.4348ZM105.355 104.865C99.1961 114.6 90.1359 126.154 78.1551 139.533L79.645 140.867C91.6641 127.446 100.804 115.8 107.045 105.935L105.355 104.865ZM78.1551 139.533C66.1828 152.902 50.3068 168.779 30.5193 187.167L31.8807 188.633C51.6932 170.221 67.6172 154.298 79.645 140.867L78.1551 139.533ZM31.6657 187.015L25.9658 184.015L25.0343 185.785L30.7343 188.785L31.6657 187.015ZM25.5 185.9H127.2V183.9H25.5V185.9ZM126.208 184.773L124.408 198.873L126.392 199.127L128.192 185.027L126.208 184.773ZM125.4 198H0V200H125.4V198Z" fill="#F3AD33"/>
</svg>
