<svg width="122" height="199" viewBox="0 0 122 199" fill="none" xmlns="http://www.w3.org/2000/svg">
<path d="M119.1 0.0999832L119.887 0.717297L121.156 -0.900017H119.1V0.0999832ZM54.6 82.3L54.2621 83.2412L54.9413 83.485L55.3867 82.9173L54.6 82.3ZM42.9 78.1L42.4685 77.1979L40.307 78.2317L42.5621 79.0412L42.9 78.1ZM56.7 74.2L56.7866 75.1962L56.808 75.1944L56.8293 75.1916L56.7 74.2ZM70.2 73.9L70.1095 74.8959L70.1445 74.8991L70.1796 74.8998L70.2 73.9ZM96.3 80.5L95.8163 81.3753L95.8259 81.3805L96.3 80.5ZM118.5 148.6L119.464 148.865L118.5 148.6ZM107.4 171.4L106.589 170.815L106.584 170.822L106.579 170.83L107.4 171.4ZM87 189.7L87.4874 190.573L87.495 190.569L87.5026 190.565L87 189.7ZM54.6 197.8L54.6322 198.8L54.6461 198.799L54.6 197.8ZM35.4 196L35.6075 195.022L35.5932 195.019L35.5789 195.016L35.4 196ZM16.5 189.1L15.9855 189.957L15.9962 189.964L16.007 189.97L16.5 189.1ZM0.3 174.1L-0.464291 173.455L-0.977483 174.063L-0.5 174.7L0.3 174.1ZM8.4 164.5L9.18283 163.878L8.42308 162.922L7.63571 163.855L8.4 164.5ZM29.7 180.1L29.3909 181.051L29.3978 181.053L29.7 180.1ZM53.7 183.7L53.7256 184.7L53.7345 184.699L53.7434 184.699L53.7 183.7ZM77.4 178.3L77.8363 179.2L77.8472 179.194L77.4 178.3ZM93.9 165.1L93.1137 164.482L93.1106 164.486L93.9 165.1ZM103.5 146.8L102.549 146.492L102.546 146.501L102.543 146.51L103.5 146.8ZM94.5 97L93.83 97.7425L93.8402 97.7514L94.5 97ZM61.8 85L61.7203 85.9968L61.7381 85.9982L61.7559 85.999L61.8 85ZM46.5 86.2L46.6889 87.182L46.7069 87.1785L46.7249 87.1744L46.5 86.2ZM33.9 90.1L33.1929 90.8071L33.7026 91.3168L34.3472 90.9944L33.9 90.1ZM32.7 88.9L31.9159 88.2794L31.3633 88.9775L31.9929 89.6071L32.7 88.9ZM94.2 11.2L94.6281 10.2962L93.9094 9.95583L93.4159 10.5794L94.2 11.2ZM99.9 13.9V14.9L100.328 12.9962L99.9 13.9ZM18.3 13.9L17.3084 13.7706L17.1611 14.9H18.3V13.9ZM20.1 0.0999832V-0.900017H19.222L19.1084 -0.029356L20.1 0.0999832ZM118.313 -0.517332L53.8133 81.6827L55.3867 82.9173L119.887 0.717297L118.313 -0.517332ZM54.9379 81.3588L43.2379 77.1588L42.5621 79.0412L54.2621 83.2412L54.9379 81.3588ZM43.3315 79.0021C47.8344 76.8486 52.3182 75.5848 56.7866 75.1962L56.6134 73.2038C51.8819 73.6152 47.1656 74.9514 42.4685 77.1979L43.3315 79.0021ZM56.8293 75.1916C61.3601 74.6006 65.7863 74.5029 70.1095 74.8959L70.2905 72.9041C65.8138 72.4971 61.2399 72.5994 56.5707 73.2084L56.8293 75.1916ZM70.1796 74.8998C79.8385 75.0969 88.3758 77.2634 95.8163 81.3752L96.7837 79.6248C89.0242 75.3366 80.1615 73.1031 70.2204 72.9002L70.1796 74.8998ZM95.8259 81.3805C103.462 85.492 109.529 91.3615 114.039 99.008L115.761 97.992C111.071 90.0385 104.738 83.908 96.7741 79.6195L95.8259 81.3805ZM114.039 99.008C118.532 106.627 120.8 115.744 120.8 126.4H122.8C122.8 115.456 120.468 105.973 115.761 97.992L114.039 99.008ZM120.8 126.4C120.8 133.093 119.717 140.403 117.536 148.335L119.464 148.865C121.683 140.797 122.8 133.307 122.8 126.4H120.8ZM117.536 148.335C115.37 156.212 111.724 163.704 106.589 170.815L108.211 171.985C113.476 164.696 117.23 156.988 119.464 148.865L117.536 148.335ZM106.579 170.83C101.673 177.894 94.988 183.899 86.4974 188.835L87.5026 190.565C96.212 185.501 103.127 179.306 108.221 171.97L106.579 170.83ZM86.5126 188.827C78.0843 193.531 67.4468 196.206 54.5539 196.801L54.6461 198.799C67.7532 198.194 78.7157 195.469 87.4874 190.573L86.5126 188.827ZM54.5678 196.801C48.4549 196.998 42.1356 196.407 35.6075 195.022L35.1925 196.978C41.8644 198.393 48.3451 199.002 54.6322 198.799L54.5678 196.801ZM35.5789 195.016C29.0923 193.837 22.8982 191.576 16.993 188.23L16.007 189.97C22.1018 193.424 28.5077 195.763 35.2211 196.984L35.5789 195.016ZM17.0145 188.243C11.1402 184.718 5.83342 179.811 1.1 173.5L-0.5 174.7C4.36658 181.189 9.85983 186.282 15.9855 189.957L17.0145 188.243ZM1.06429 174.745L9.16429 165.145L7.63571 163.855L-0.464291 173.455L1.06429 174.745ZM7.61718 165.122C13.9164 173.047 21.1719 178.38 29.3909 181.051L30.0091 179.149C22.2281 176.62 15.2836 171.553 9.18283 163.878L7.61718 165.122ZM29.3978 181.053C37.6929 183.683 45.8037 184.903 53.7256 184.7L53.6744 182.7C45.9963 182.897 38.1071 181.717 30.0022 179.147L29.3978 181.053ZM53.7434 184.699C63.0461 184.295 71.0864 182.472 77.8363 179.2L76.9637 177.4C70.5136 180.528 62.7539 182.305 53.6566 182.701L53.7434 184.699ZM77.8472 179.194C84.7658 175.735 90.3879 171.244 94.6894 165.714L93.1106 164.486C89.0121 169.756 83.6342 174.065 76.9528 177.406L77.8472 179.194ZM94.6863 165.718C99.1605 160.023 102.42 153.813 104.457 147.09L102.543 146.51C100.58 152.987 97.4395 158.977 93.1137 164.482L94.6863 165.718ZM104.451 147.108C106.683 140.21 107.8 133.207 107.8 126.1H105.8C105.8 132.993 104.717 139.79 102.549 146.492L104.451 147.108ZM107.8 126.1C107.8 113.65 103.603 103.662 95.1598 96.2486L93.8402 97.7514C101.797 104.738 105.8 114.15 105.8 126.1H107.8ZM95.17 96.2576C86.7602 88.6683 75.6205 84.6087 61.8441 84.001L61.7559 85.999C75.1795 86.5912 85.8398 90.5317 93.83 97.7424L95.17 96.2576ZM61.8797 84.0032C56.7713 83.5945 51.5685 84.0041 46.2751 85.2256L46.7249 87.1744C51.8315 85.9959 56.8287 85.6055 61.7203 85.9968L61.8797 84.0032ZM46.3112 85.218C41.0601 86.2278 36.7635 87.5502 33.4528 89.2056L34.3472 90.9944C37.4365 89.4498 41.5399 88.1722 46.6889 87.182L46.3112 85.218ZM34.6071 89.3929L33.4071 88.1929L31.9929 89.6071L33.1929 90.8071L34.6071 89.3929ZM33.4841 89.5206L94.9841 11.8206L93.4159 10.5794L31.9159 88.2794L33.4841 89.5206ZM93.7719 12.1037L99.4719 14.8037L100.328 12.9962L94.6281 10.2962L93.7719 12.1037ZM99.9 12.9H18.3V14.9H99.9V12.9ZM19.2916 14.0293L21.0916 0.229322L19.1084 -0.029356L17.3084 13.7706L19.2916 14.0293ZM20.1 1.09998H119.1V-0.900017H20.1V1.09998Z" fill="#F3AD33"/>
</svg>
