<svg width="198" height="64" viewBox="0 0 198 64" fill="none" xmlns="http://www.w3.org/2000/svg">
<rect width="198" height="64" rx="12" fill="#05090C"/>
<path d="M46.196 30.595C46.2121 29.343 46.5447 28.1155 47.1627 27.0265C47.7807 25.9376 48.6642 25.0227 49.7308 24.3669C49.0532 23.3992 48.1593 22.6028 47.12 22.041C46.0808 21.4791 44.9249 21.1674 43.7441 21.1304C41.2252 20.866 38.7833 22.6377 37.4997 22.6377C36.1913 22.6377 34.2151 21.1567 32.087 21.2005C30.7105 21.2449 29.3689 21.6452 28.1931 22.3623C27.0173 23.0794 26.0473 24.0888 25.3776 25.2923C22.4766 30.3149 24.6405 37.6965 27.4194 41.7564C28.8097 43.7444 30.4347 45.9651 32.5608 45.8863C34.6414 45.8 35.4185 44.5596 37.9299 44.5596C40.4181 44.5596 41.1471 45.8863 43.3164 45.8363C45.549 45.8 46.9556 43.8394 48.2972 41.8325C49.2962 40.416 50.0649 38.8504 50.5748 37.1938C49.2778 36.6452 48.1709 35.7269 47.3922 34.5535C46.6135 33.38 46.1975 32.0033 46.196 30.595Z" fill="white"/>
<path d="M42.0984 18.4605C43.3156 16.9992 43.9154 15.121 43.7701 13.2246C41.9104 13.4199 40.1925 14.3088 38.9588 15.714C38.3555 16.4005 37.8936 17.1992 37.5992 18.0643C37.3048 18.9295 37.1838 19.8442 37.2432 20.7561C38.1734 20.7657 39.0937 20.5641 39.9347 20.1664C40.7756 19.7688 41.5155 19.1855 42.0984 18.4605Z" fill="white"/>
<path d="M72.4961 40.854H65.396L63.6909 45.8887H60.6836L67.4087 27.2617H70.5332L77.2583 45.8887H74.1997L72.4961 40.854ZM66.1313 38.5308H71.7593L68.9849 30.3599H68.9073L66.1313 38.5308Z" fill="white"/>
<path d="M91.7818 39.0997C91.7818 43.3199 89.523 46.0313 86.1143 46.0313C85.2508 46.0765 84.3921 45.8776 83.6364 45.4574C82.8807 45.0372 82.2586 44.4126 81.8414 43.6553H81.7769V50.3819H78.9893V32.3087H81.6875V34.5675H81.7388C82.1752 33.8138 82.8078 33.1925 83.5693 32.7697C84.3307 32.3469 85.1925 32.1385 86.063 32.1666C89.5097 32.1666 91.7818 34.8912 91.7818 39.0997ZM88.9165 39.0997C88.9165 36.3502 87.4956 34.5426 85.3277 34.5426C83.1978 34.5426 81.7652 36.3883 81.7652 39.0997C81.7652 41.836 83.1978 43.6685 85.3277 43.6685C87.4957 43.6685 88.9165 41.8741 88.9165 39.0997Z" fill="white"/>
<path d="M106.729 39.0997C106.729 43.3199 104.47 46.0313 101.062 46.0313C100.198 46.0765 99.3393 45.8776 98.5836 45.4574C97.828 45.0372 97.2059 44.4126 96.7886 43.6553H96.7241V50.3819H93.9365V32.3086H96.6348V34.5674H96.686C97.1225 33.8137 97.7551 33.1925 98.5165 32.7697C99.2779 32.3469 100.14 32.1385 101.01 32.1666C104.457 32.1666 106.729 34.8912 106.729 39.0997ZM103.864 39.0997C103.864 36.3502 102.443 34.5425 100.275 34.5425C98.1451 34.5425 96.7124 36.3882 96.7124 39.0997C96.7124 41.836 98.1451 43.6685 100.275 43.6685C102.443 43.6685 103.864 41.8741 103.864 39.0997Z" fill="white"/>
<path d="M116.608 40.6988C116.815 42.546 118.609 43.7588 121.062 43.7588C123.411 43.7588 125.102 42.5459 125.102 40.8804C125.102 39.4346 124.082 38.5689 121.668 37.9756L119.254 37.3941C115.834 36.5679 114.246 34.9683 114.246 32.3726C114.246 29.1587 117.046 26.9512 121.023 26.9512C124.959 26.9512 127.658 29.1587 127.749 32.3726H124.935C124.766 30.5137 123.23 29.3916 120.984 29.3916C118.738 29.3916 117.202 30.5269 117.202 32.1792C117.202 33.4961 118.183 34.271 120.584 34.8642L122.636 35.3681C126.458 36.2719 128.046 37.8071 128.046 40.5317C128.046 44.0166 125.27 46.1992 120.855 46.1992C116.724 46.1992 113.935 44.0678 113.755 40.6987L116.608 40.6988Z" fill="white"/>
<path d="M134.062 29.0947V32.3086H136.644V34.5161H134.062V42.0029C134.062 43.166 134.579 43.708 135.714 43.708C136.02 43.7027 136.327 43.6811 136.631 43.6435V45.8378C136.12 45.9332 135.602 45.9764 135.083 45.9668C132.333 45.9668 131.261 44.934 131.261 42.3002V34.5161H129.286V32.3086H131.261V29.0947H134.062Z" fill="white"/>
<path d="M138.141 39.0996C138.141 34.8267 140.657 32.1416 144.582 32.1416C148.519 32.1416 151.024 34.8266 151.024 39.0996C151.024 43.3843 148.532 46.0576 144.582 46.0576C140.632 46.0576 138.141 43.3843 138.141 39.0996ZM148.184 39.0996C148.184 36.1685 146.84 34.4385 144.582 34.4385C142.323 34.4385 140.981 36.1816 140.981 39.0996C140.981 42.0425 142.323 43.7593 144.582 43.7593C146.84 43.7593 148.184 42.0425 148.184 39.0996Z" fill="white"/>
<path d="M153.321 32.3085H155.98V34.62H156.044C156.224 33.8981 156.647 33.2601 157.242 32.8133C157.837 32.3665 158.568 32.138 159.311 32.1664C159.632 32.1653 159.953 32.2002 160.266 32.2704V34.8779C159.861 34.7539 159.438 34.697 159.014 34.7094C158.609 34.693 158.205 34.7644 157.83 34.9187C157.455 35.073 157.119 35.3066 156.843 35.6035C156.567 35.9003 156.358 36.2533 156.232 36.6384C156.105 37.0234 156.063 37.4312 156.109 37.8339V45.8891H153.321L153.321 32.3085Z" fill="white"/>
<path d="M173.12 41.9004C172.745 44.3657 170.344 46.0576 167.272 46.0576C163.321 46.0576 160.869 43.4106 160.869 39.1641C160.869 34.9043 163.334 32.1416 167.155 32.1416C170.912 32.1416 173.275 34.7226 173.275 38.8403V39.7954H163.683V39.9639C163.639 40.4637 163.701 40.9672 163.867 41.4409C164.032 41.9147 164.296 42.3479 164.642 42.7117C164.987 43.0755 165.406 43.3616 165.871 43.5511C166.335 43.7406 166.835 43.829 167.336 43.8105C167.995 43.8723 168.656 43.7197 169.221 43.3755C169.786 43.0314 170.225 42.514 170.473 41.9004L173.12 41.9004ZM163.696 37.8472H170.486C170.511 37.3978 170.443 36.9481 170.286 36.5262C170.129 36.1044 169.886 35.7196 169.573 35.396C169.261 35.0723 168.884 34.8168 168.468 34.6455C168.052 34.4742 167.605 34.3907 167.155 34.4004C166.701 34.3977 166.251 34.4849 165.831 34.657C165.411 34.8291 165.029 35.0827 164.707 35.4032C164.386 35.7236 164.131 36.1046 163.957 36.5241C163.784 36.9435 163.695 37.3932 163.696 37.8472Z" fill="white"/>
<path d="M64.1509 17.0246H65.3476C65.5537 17.0503 65.7628 17.033 65.9618 16.9738C66.1608 16.9146 66.3454 16.8149 66.5039 16.6808C66.6624 16.5468 66.7915 16.3814 66.8829 16.195C66.9744 16.0086 67.0262 15.8053 67.0351 15.5979C67.0351 14.7724 66.4141 14.2392 65.3608 14.2392C65.1498 14.2097 64.9349 14.2228 64.729 14.2777C64.5231 14.3327 64.3302 14.4283 64.1619 14.5589C63.9935 14.6896 63.853 14.8527 63.7488 15.0386C63.6445 15.2244 63.5785 15.4293 63.5547 15.6411H62.2407C62.2633 15.2566 62.3648 14.8809 62.5389 14.5374C62.713 14.1939 62.9559 13.8899 63.2526 13.6444C63.5493 13.3988 63.8933 13.2169 64.2633 13.1101C64.6333 13.0033 65.0214 12.9738 65.4033 13.0234C67.1655 13.0234 68.4063 14.01 68.4063 15.4301C68.4104 15.9059 68.2512 16.3687 67.9553 16.7413C67.6594 17.1138 67.2446 17.3736 66.7803 17.4773V17.5827C67.3308 17.6071 67.8492 17.8485 68.2223 18.2541C68.5953 18.6596 68.7926 19.1964 68.771 19.747C68.7303 20.1429 68.6109 20.5266 68.42 20.8757C68.229 21.2248 67.9703 21.5323 67.6589 21.7801C67.3476 22.028 66.9899 22.2111 66.6069 22.3189C66.2238 22.4267 65.8231 22.457 65.4282 22.4079C65.0325 22.4619 64.63 22.4356 64.2446 22.3307C63.8593 22.2257 63.499 22.0443 63.1853 21.7971C62.8716 21.55 62.6108 21.2422 62.4186 20.8921C62.2264 20.542 62.1066 20.1568 62.0664 19.7595H63.4009C63.4814 20.6157 64.2681 21.168 65.4282 21.168C66.5884 21.168 67.3457 20.5476 67.3457 19.6731C67.3457 18.7862 66.6323 18.2398 65.3857 18.2398H64.1509V17.0246Z" fill="white"/>
<path d="M70.2871 20.2812C70.2871 19.0654 71.1938 18.3645 72.7993 18.2649L74.6289 18.1594V17.5764C74.6289 16.863 74.1587 16.4602 73.2461 16.4602C72.502 16.4602 71.9878 16.7334 71.8384 17.2109H70.5479C70.6841 16.0508 71.7769 15.3066 73.3091 15.3066C75.0024 15.3066 75.9575 16.1496 75.9575 17.5764V22.1914H74.6729V21.2422H74.5674C74.3533 21.5827 74.0527 21.8602 73.6963 22.0466C73.3398 22.2329 72.9403 22.3213 72.5386 22.3027C72.255 22.3322 71.9684 22.3019 71.6973 22.2139C71.4262 22.1258 71.1765 21.9819 70.9644 21.7915C70.7522 21.601 70.5824 21.3682 70.4657 21.1081C70.3491 20.848 70.2882 20.5663 70.2871 20.2812ZM74.6289 19.7041V19.1394L72.9794 19.2449C72.0493 19.3071 71.6274 19.6235 71.6274 20.219C71.6274 20.8269 72.1547 21.1806 72.8799 21.1806C73.0923 21.2022 73.307 21.1807 73.511 21.1176C73.715 21.0544 73.9042 20.9509 74.0674 20.8132C74.2306 20.6754 74.3644 20.5062 74.4609 20.3157C74.5573 20.1251 74.6145 19.9172 74.6289 19.7041Z" fill="white"/>
<path d="M79.4951 16.5586V22.1909H78.1621V15.4365H82.6094V16.5585L79.4951 16.5586Z" fill="white"/>
<path d="M90.6875 18.8112C90.6875 20.9572 89.6021 22.3027 87.897 22.3027C87.4784 22.3313 87.0604 22.2397 86.6922 22.0387C86.3239 21.8377 86.0207 21.5356 85.8184 21.1681H85.7129V24.4369H84.3799V15.437H85.6631V16.5532H85.7627C85.9687 16.1729 86.2758 15.8569 86.6501 15.6401C87.0244 15.4234 87.4514 15.3143 87.8838 15.3249C89.602 15.3249 90.6875 16.6645 90.6875 18.8112ZM89.3164 18.8112C89.3164 17.3845 88.6411 16.5224 87.5117 16.5224C86.3897 16.5224 85.688 17.4028 85.688 18.8171C85.688 20.2248 86.3897 21.1059 87.5059 21.1059C88.6411 21.1059 89.3164 20.2438 89.3164 18.8112Z" fill="white"/>
<path d="M92.4629 24.6101V23.4624C92.6072 23.4807 92.7525 23.4891 92.8979 23.4873C93.1819 23.5083 93.4637 23.4238 93.6892 23.2498C93.9146 23.0758 94.0679 22.8247 94.1196 22.5447L94.2192 22.2158L91.7744 15.4365H93.2261L94.9195 20.8015H95.025L96.7125 15.4365H98.126L95.608 22.47C95.0308 24.1135 94.3922 24.6409 93.0152 24.6409C92.9039 24.6409 92.5875 24.6284 92.4629 24.6101Z" fill="white"/>
<path d="M99.165 20.2743H100.492C100.623 20.8698 101.181 21.1803 101.961 21.1803C102.849 21.1803 103.394 20.7892 103.394 20.1813C103.394 19.5302 102.905 19.2197 101.961 19.2197H100.951V18.184H101.944C102.75 18.184 103.16 17.8742 103.16 17.3095C103.16 16.8137 102.763 16.435 101.944 16.435C101.198 16.435 100.653 16.7514 100.567 17.2846H99.2822C99.3783 16.6719 99.7109 16.1214 100.209 15.7515C100.706 15.3815 101.329 15.2217 101.944 15.3064C103.549 15.3064 104.468 16.0322 104.468 17.1733C104.475 17.4911 104.373 17.8018 104.179 18.0535C103.985 18.3052 103.711 18.4826 103.401 18.5561V18.6616C103.77 18.7091 104.107 18.8901 104.351 19.1702C104.595 19.4504 104.727 19.8102 104.723 20.1814C104.723 21.4654 103.63 22.3149 101.961 22.3149C100.486 22.3148 99.2881 21.6388 99.165 20.2743Z" fill="white"/>
<path d="M106.643 22.1909V15.4365H107.964V20.0823H108.069L111.182 15.4365H112.503V22.1909H111.182V17.5203H111.083L107.964 22.1909L106.643 22.1909Z" fill="white"/>
<path d="M119.782 16.5585H117.655V22.1908H116.32V16.5585H114.193V15.4365H119.782V16.5585Z" fill="white"/>
<path d="M126.963 20.3678C126.781 20.9851 126.389 21.5189 125.853 21.8761C125.318 22.2333 124.674 22.3911 124.035 22.3219C123.59 22.3336 123.147 22.2484 122.739 22.0721C122.33 21.8958 121.964 21.6327 121.668 21.301C121.371 20.9693 121.15 20.5769 121.02 20.1512C120.89 19.7255 120.854 19.2765 120.915 18.8356C120.855 18.3932 120.892 17.9433 121.021 17.5163C121.151 17.0893 121.371 16.6952 121.666 16.3606C121.962 16.026 122.326 15.7587 122.733 15.5769C123.141 15.3951 123.583 15.3029 124.029 15.3068C125.908 15.3068 127.043 16.5908 127.043 18.7118V19.1769H122.274V19.2516C122.253 19.4995 122.284 19.7491 122.365 19.9844C122.446 20.2196 122.575 20.4353 122.745 20.6175C122.914 20.7997 123.12 20.9445 123.349 21.0425C123.577 21.1405 123.824 21.1896 124.073 21.1866C124.391 21.2247 124.714 21.1672 125 21.0214C125.286 20.8756 125.522 20.6481 125.678 20.3678L126.963 20.3678ZM122.274 18.191H125.684C125.701 17.9645 125.67 17.7369 125.594 17.5229C125.517 17.3089 125.397 17.1132 125.241 16.9484C125.084 16.7837 124.895 16.6534 124.685 16.5661C124.476 16.4787 124.25 16.4362 124.023 16.4413C123.792 16.4382 123.563 16.4813 123.35 16.5681C123.136 16.6549 122.942 16.7837 122.779 16.9468C122.616 17.11 122.487 17.3041 122.4 17.5178C122.314 17.7315 122.271 17.9604 122.274 18.191Z" fill="white"/>
<path d="M132.614 15.4365H135.66C136.981 15.4365 137.756 16.106 137.756 17.154C137.758 17.4866 137.646 17.8098 137.438 18.0695C137.23 18.3292 136.94 18.5097 136.615 18.5808V18.6862C137.009 18.7112 137.379 18.8866 137.648 19.1764C137.917 19.4662 138.064 19.8482 138.059 20.2434C138.059 21.4218 137.173 22.1909 135.69 22.1909H132.614V15.4365ZM133.936 16.4597V18.2087H135.257C136.063 18.2087 136.448 17.8989 136.448 17.3276C136.448 16.801 136.112 16.4597 135.405 16.4597L133.936 16.4597ZM133.936 19.1887V21.1677H135.516C136.304 21.1677 136.726 20.8198 136.726 20.1812C136.726 19.5052 136.249 19.1887 135.349 19.1887L133.936 19.1887Z" fill="white"/>
</svg>
