<svg width="222" height="64" viewBox="0 0 222 64" fill="none" xmlns="http://www.w3.org/2000/svg">
<rect width="222" height="64" rx="12" fill="#05090C"/>
<path d="M111.243 34.4877C107.717 34.4877 104.839 37.1709 104.839 40.8698C104.839 44.5687 107.713 47.2488 111.243 47.2488C114.773 47.2488 117.647 44.5405 117.647 40.8698C117.647 37.1992 114.773 34.4877 111.243 34.4877ZM111.243 44.7348C109.309 44.7348 107.641 43.1393 107.641 40.8698C107.641 38.6003 109.309 37.0017 111.243 37.0017C113.177 37.0017 114.842 38.5721 114.842 40.8698C114.842 43.1675 113.174 44.7348 111.243 44.7348ZM97.272 34.4877C93.7455 34.4877 90.8679 37.1709 90.8679 40.8698C90.8679 44.5687 93.7424 47.2488 97.272 47.2488C100.802 47.2488 103.676 44.5405 103.676 40.8698C103.676 37.1992 100.798 34.4877 97.272 34.4877ZM97.272 44.7348C95.3411 44.7348 93.6734 43.1393 93.6734 40.8698C93.6734 38.6003 95.3411 37.0017 97.272 37.0017C99.2029 37.0017 100.874 38.5721 100.874 40.8698C100.874 43.1675 99.2061 44.7348 97.272 44.7348ZM80.6553 36.4468V39.152H87.1315C86.9371 40.6755 86.4324 41.7851 85.6582 42.5594C84.7147 43.5029 83.2414 44.5405 80.6553 44.5405C76.6681 44.5405 73.5491 41.3275 73.5491 37.3402C73.5491 33.353 76.6649 30.14 80.6553 30.14C82.8057 30.14 84.3761 30.9832 85.5359 32.0709L87.4449 30.1619C85.8243 28.6165 83.674 27.4316 80.6553 27.4316C75.1948 27.4316 70.6025 31.8797 70.6025 37.3402C70.6025 42.8007 75.1948 47.2488 80.6553 47.2488C83.6019 47.2488 85.8243 46.2802 87.5672 44.4684C89.3539 42.6816 89.9119 40.1677 89.9119 38.1364C89.9119 37.5095 89.8649 36.9296 89.7677 36.4468H80.6584H80.6553ZM148.617 38.547C148.084 37.1208 146.467 34.4877 143.157 34.4877C139.847 34.4877 137.141 37.0738 137.141 40.8698C137.141 44.4464 139.847 47.2488 143.47 47.2488C146.395 47.2488 148.084 45.462 148.787 44.4214L146.611 42.97C145.884 44.0327 144.896 44.7348 143.47 44.7348C142.044 44.7348 141.028 44.0828 140.376 42.8039L148.906 39.2743L148.617 38.5502V38.547ZM139.919 40.6755C139.847 38.2085 141.828 36.9547 143.254 36.9547C144.367 36.9547 145.31 37.5095 145.624 38.3088L139.922 40.6786L139.919 40.6755ZM132.982 46.8601H135.784V28.1087H132.982V46.8601ZM128.389 35.914H128.292C127.665 35.1648 126.455 34.4877 124.935 34.4877C121.744 34.4877 118.823 37.2901 118.823 40.8918C118.823 44.4934 121.747 47.2457 124.935 47.2457C126.459 47.2457 127.665 46.5686 128.292 45.7943H128.389V46.7128C128.389 49.1546 127.085 50.4587 124.982 50.4587C123.267 50.4587 122.202 49.2267 121.769 48.1892L119.327 49.2048C120.026 50.8975 121.888 52.9758 124.982 52.9758C128.267 52.9758 131.048 51.0417 131.048 46.3303V34.8764H128.389V35.9171V35.914ZM125.176 44.7348C123.242 44.7348 121.625 43.1173 121.625 40.8949C121.625 38.6724 123.242 37.0048 125.176 37.0048C127.111 37.0048 128.584 38.6474 128.584 40.8949C128.584 43.1424 127.085 44.7348 125.176 44.7348ZM161.748 28.1119H155.043V46.8632H157.839V39.7602H161.748C164.852 39.7602 167.898 37.5126 167.898 33.936C167.898 30.3594 164.848 28.1119 161.748 28.1119ZM161.82 37.149H157.839V30.7199H161.82C163.914 30.7199 165.102 32.4533 165.102 33.9329C165.102 35.4124 163.914 37.1459 161.82 37.1459M179.117 34.4532C177.092 34.4532 174.992 35.3466 174.124 37.3214L176.61 38.359C177.139 37.3214 178.13 36.9829 179.167 36.9829C180.616 36.9829 182.086 37.8512 182.111 39.3934V39.5877C181.603 39.2994 180.518 38.8636 179.192 38.8636C176.515 38.8636 173.788 40.3338 173.788 43.086C173.788 45.5968 175.986 47.2112 178.443 47.2112C180.327 47.2112 181.362 46.368 182.014 45.3774H182.111V46.8256H184.813V39.6348C184.813 36.3058 182.33 34.4501 179.12 34.4501M178.782 44.7254C177.863 44.7254 176.584 44.2678 176.584 43.133C176.584 41.6848 178.177 41.1331 179.553 41.1331C180.782 41.1331 181.362 41.3996 182.111 41.76C181.895 43.4966 180.399 44.7285 178.782 44.7285M194.656 34.8607L191.446 42.992H191.349L188.02 34.8607H185.004L189.998 46.2238L187.151 52.5432H190.07L197.765 34.8607H194.652H194.656ZM169.447 46.857H172.246V28.1056H169.447V46.857Z" fill="white"/>
<path d="M40.1184 30.9983L24.1475 47.9472C24.1475 47.9472 24.1475 47.9535 24.1475 47.9566C24.6365 49.7966 26.3166 51.1508 28.3134 51.1508C29.1127 51.1508 29.8588 50.9345 30.5014 50.5584L30.5515 50.527L48.5286 40.1545L40.1153 30.9951L40.1184 30.9983Z" fill="#EA4435"/>
<path d="M56.2744 28.1121L56.2587 28.1027L48.4974 23.6045L39.7549 31.3847L48.5287 40.1554L56.2462 35.701C57.6003 34.9675 58.5188 33.5413 58.5188 31.8987C58.5188 30.2562 57.6129 28.8456 56.2713 28.1121" fill="#F9BC15"/>
<path d="M24.1473 15.7764C24.0502 16.1306 24 16.5036 24 16.886V46.8374C24 47.223 24.0502 47.5929 24.1473 47.9471L40.6637 31.4307L24.1473 15.7764Z" fill="#547DBF"/>
<path d="M40.2344 31.8638L48.5004 23.6009L30.5452 13.1908C29.8932 12.7989 29.1315 12.5732 28.3165 12.5732C26.3229 12.5732 24.6396 13.9305 24.1475 15.7737C24.1475 15.7737 24.1475 15.7737 24.1475 15.7768L40.2375 31.8638H40.2344Z" fill="#33A851"/>
<path d="M73.6439 21.1315C72.901 20.7052 72.3148 20.1191 71.8885 19.3699C71.4622 18.6207 71.249 17.7963 71.249 16.8904C71.249 15.9845 71.4622 15.1601 71.8885 14.4109C72.3148 13.6617 72.901 13.0755 73.6439 12.6492C74.3868 12.2229 75.2112 12.0098 76.1171 12.0098C77.5183 12.0098 78.6718 12.5176 79.5746 13.5363L78.5715 14.5143C78.2487 14.1319 77.8913 13.8435 77.4963 13.6523C77.1014 13.4611 76.6469 13.3639 76.1328 13.3639C75.4965 13.3639 74.9197 13.5081 74.3962 13.7996C73.8758 14.0912 73.4621 14.5049 73.1549 15.041C72.8508 15.577 72.6972 16.1914 72.6972 16.8873C72.6972 17.5831 72.8508 18.1975 73.1549 18.7336C73.4589 19.2696 73.8727 19.6833 74.3962 19.9717C74.9165 20.2633 75.4965 20.4106 76.1328 20.4106C77.1954 20.4106 78.0857 19.9717 78.8066 19.0909L79.8379 20.0814C79.3865 20.6112 78.8411 21.025 78.2079 21.3228C77.5716 21.6174 76.8757 21.7679 76.1202 21.7679C75.2143 21.7679 74.3899 21.5547 73.647 21.1284L73.6439 21.1315Z" fill="white"/>
<path d="M81.4395 12.2199H82.8751V16.7495H82.9535L86.6743 12.2199H88.4767V12.2983L84.5365 16.9689L88.6867 21.4828V21.5611H86.8059L82.9566 17.2792H82.8782V21.5611H81.4426V12.2168L81.4395 12.2199Z" fill="white"/>
<path d="M93.1067 12.2197H94.7367L98.2726 21.5641H96.6928L95.8307 19.1629H92.019L91.157 21.5641H89.5771L93.1005 12.2197H93.1067ZM95.3637 17.8307L94.3198 14.9657L93.9688 13.8968H93.8904L93.5393 14.9657L92.4955 17.8307H95.3668H95.3637Z" fill="white"/>
<path d="M103.677 17.4009C103.094 17.9149 102.376 18.172 101.523 18.172C100.959 18.172 100.448 18.056 99.9905 17.8272C99.5328 17.5983 99.1754 17.2629 98.9153 16.8304C98.6551 16.3946 98.5234 15.8837 98.5234 15.2913V12.2256H99.9716V15.0436C99.9716 15.6079 100.138 16.0467 100.467 16.3539C100.796 16.6642 101.241 16.8178 101.799 16.8178C102.555 16.8178 103.182 16.5232 103.68 15.9307V12.2256H105.103V21.5699H103.68V17.4071L103.677 17.4009Z" fill="white"/>
<path d="M109.886 12.2197H111.516L115.052 21.5641H113.472L112.61 19.1629H108.798L107.936 21.5641H106.356L109.88 12.2197H109.886ZM112.143 17.8307L111.099 14.9657L110.748 13.8968H110.67L110.319 14.9657L109.275 17.8307H112.146H112.143Z" fill="white"/>
<path d="M117.482 13.577H114.858V12.2197H121.526V13.577H118.915V21.5641H117.479V13.577H117.482Z" fill="white"/>
<path d="M123.015 12.2197H124.45V15.5487H126.435C127.018 15.5487 127.557 15.6678 128.052 15.9092C128.547 16.1474 128.942 16.4954 129.24 16.953C129.535 17.4107 129.682 17.9436 129.682 18.5517C129.682 19.1598 129.535 19.6927 129.24 20.1503C128.945 20.608 128.547 20.9559 128.052 21.2004C127.557 21.4449 127.018 21.5672 126.435 21.5672H123.015V12.2229V12.2197ZM126.538 20.2193C126.877 20.2193 127.177 20.1409 127.438 19.9842C127.698 19.8275 127.898 19.6206 128.036 19.3636C128.174 19.1065 128.246 18.8338 128.246 18.5485C128.246 18.2633 128.177 17.9906 128.036 17.7335C127.898 17.4765 127.698 17.2696 127.438 17.1066C127.177 16.9468 126.877 16.8653 126.538 16.8653H124.45V20.2193H126.538Z" fill="white"/>
<path d="M134.305 12.2197H135.728V17.3887L135.65 19.1911H135.728L139.916 12.2229H141.546V21.5672H140.123V16.2697L140.201 14.4673H140.123L135.869 21.5672H134.302V12.2229L134.305 12.2197Z" fill="white"/>
<path d="M144.358 21.1719C143.772 20.7707 143.368 20.1814 143.151 19.3977L144.468 18.8742C144.581 19.3601 144.8 19.7457 145.126 20.0215C145.452 20.3005 145.838 20.4384 146.28 20.4384C146.759 20.4384 147.167 20.288 147.505 19.987C147.844 19.6861 148.013 19.3162 148.013 18.8711C148.013 18.5827 147.932 18.3226 147.766 18.0812C147.599 17.843 147.374 17.6517 147.088 17.5138C146.8 17.3759 146.49 17.3038 146.148 17.3038H145.377V16.0499H146.07C146.54 16.0499 146.932 15.9214 147.245 15.6644C147.559 15.4073 147.715 15.0625 147.715 14.6268C147.715 14.2444 147.571 13.9278 147.28 13.6739C146.988 13.4231 146.625 13.2946 146.189 13.2946C145.797 13.2946 145.468 13.4137 145.198 13.6457C144.929 13.8808 144.741 14.1598 144.637 14.4795L143.371 13.956C143.553 13.4419 143.885 12.9874 144.371 12.5924C144.853 12.1975 145.465 12 146.205 12C146.769 12 147.273 12.1097 147.712 12.3323C148.151 12.5548 148.496 12.8589 148.744 13.2444C148.991 13.6331 149.117 14.0689 149.117 14.5547C149.117 15.4606 148.722 16.1283 147.929 16.564V16.6424C148.374 16.843 148.734 17.1345 149.013 17.517C149.292 17.8994 149.43 18.3664 149.43 18.915C149.43 19.4636 149.292 19.9275 149.019 20.3632C148.747 20.7989 148.367 21.1406 147.891 21.3882C147.411 21.6359 146.878 21.7612 146.286 21.7612C145.59 21.7612 144.948 21.5606 144.361 21.1594L144.358 21.1719Z" fill="white"/>
</svg>
