<svg width="311" height="74" viewBox="0 0 311 74" fill="none" xmlns="http://www.w3.org/2000/svg">
<g clip-path="url(#clip0_4209_22336)">
<path d="M105.562 65.2266H102.609C101.441 65.2079 100.385 64.4985 99.955 63.4157L93.75 47.8358L90.7317 55.1823H91.2737L94.6752 55.1917C94.6752 55.1917 95.6657 57.6841 95.6938 57.7587L96.2357 59.1776L89.657 59.159H89.1057C89.0496 59.3083 88.9468 59.5604 88.8347 59.8217L88.7319 60.0924L86.6387 65.1706H81.7607L83.8913 60.0831L84.6483 58.2815C84.9099 57.6654 85.1622 57.068 85.4052 56.4799L85.5641 56.1065L88.4049 49.3294C88.8254 48.3212 89.2178 47.3877 89.5729 46.5289L91.4699 41.9922H96.1049L96.3946 42.711C96.8338 43.7938 97.2637 44.8486 97.6842 45.8755C97.9552 46.5196 98.2355 47.2197 98.5346 47.9665L99.1139 49.3667C99.1607 49.5067 104.478 62.5288 104.926 63.6304L105.562 65.2266Z" fill="#D2AB49"/>
<path d="M126.167 45.1374C125.475 44.0639 124.429 43.2611 123.055 42.7476C121.803 42.2809 120.205 42.0382 118.317 42.0382L109.178 42.0195L109.122 65.2166H113.72L113.738 56.6286H117.439C119.85 56.6286 121.691 56.3112 123.046 55.7044C124.532 55.0416 125.606 54.0988 126.251 52.904C126.868 51.7744 127.176 50.4582 127.176 49.03C127.176 47.4897 126.84 46.1735 126.158 45.1374H126.167ZM122.008 51.1303C121.7 51.5971 121.167 51.9611 120.457 52.1945C119.616 52.4652 118.448 52.5866 117.065 52.6052H113.757L113.776 46.0989L118.177 46.1175C118.691 46.1175 119.261 46.1549 119.878 46.2295C120.401 46.2949 120.887 46.4349 121.317 46.6403C121.663 46.8083 121.962 47.079 122.195 47.4431C122.42 47.7885 122.532 48.3486 122.532 49.0487C122.532 49.9448 122.354 50.6449 122.018 51.149L122.008 51.1303Z" fill="#D2AB49"/>
<path d="M147.071 42.0569L147.052 46.2202L135.465 46.1922L135.409 65.2259L130.783 65.2166L130.839 42.0195L147.071 42.0569Z" fill="#D2AB49"/>
<path d="M173.844 42.0668L172.667 44.1204C172.012 45.2686 171.33 46.4635 170.62 47.7237C169.845 49.0959 169.144 50.3468 168.499 51.4669L164.509 58.5427C164.023 59.4109 163.499 60.3257 162.939 61.3152L160.705 65.2358H155.556L158.164 60.6057C158.537 59.943 158.93 59.2429 159.341 58.5241L154.211 49.796C153.622 48.7692 153.061 47.817 152.519 46.9022L149.632 42.0107H154.958L155.285 42.6082C155.818 43.5417 156.304 44.3725 156.715 45.1192L157.874 47.1822C158.229 47.817 158.584 48.4424 158.949 49.0679C159.276 49.6373 159.631 50.2627 160.004 50.9348L161.901 54.2767L163.574 51.2429C164.004 50.4774 164.397 49.7773 164.742 49.1239C165.088 48.4705 165.443 47.8263 165.808 47.1822L166.938 45.1286C167.34 44.4005 167.798 43.579 168.312 42.6548L168.648 42.0668L173.825 42.0854L173.844 42.0668Z" fill="#D2AB49"/>
<path d="M203.037 65.2264H198.505L198.29 63.7048C198.056 61.9312 197.823 60.2323 197.608 58.6267C197.384 56.8624 197.159 55.2101 196.954 53.6792L196.561 50.7481L194.076 56.1903C193.543 57.3571 193.01 58.524 192.478 59.6815C191.683 61.4085 190.954 63.0234 190.263 64.5076L189.964 65.1891H186.88L183.591 57.9639C183.058 56.7877 182.525 55.6395 182.002 54.5287L180.245 50.6734L178.255 65.1517H173.657L173.844 63.8262C173.966 62.9767 174.087 62.1366 174.209 61.3058L175.816 49.9733C176.012 48.6944 176.171 47.5089 176.32 46.4167C176.47 45.3152 176.638 44.1577 176.816 42.9348L176.965 41.9453H179.189C180.301 41.9453 181.311 42.5988 181.778 43.6069C182.329 44.8018 183.039 46.342 183.422 47.1728L183.974 48.3864C184.46 49.4412 184.936 50.496 185.413 51.5322L188.403 58.0572L195.066 43.6443C195.533 42.6268 196.552 41.9827 197.673 41.9827H199.897L200.037 42.9815C200.122 43.6069 200.196 44.2137 200.28 44.8111C200.355 45.3619 200.421 45.9033 200.495 46.4354L201.906 56.9557C202.075 58.2253 202.233 59.4015 202.383 60.4936C202.523 61.5951 202.673 62.7247 202.822 63.8915L203 65.1984L203.037 65.2264Z" fill="#D2AB49"/>
<path d="M212.465 46.1089L212.456 51.4204L223.773 51.439L223.763 55.4904L212.447 55.4624L212.428 61.0819L224.445 61.1193V65.2266L207.84 65.1893L207.905 41.9922L224.483 42.0295V46.1369L212.465 46.1089Z" fill="#D2AB49"/>
<path d="M231.576 62.9395L231.586 62.9488H231.576V62.9395Z" fill="#D2AB49"/>
<path d="M231.576 62.9395L231.586 62.9488H231.576V62.9395Z" fill="#D2AB49"/>
<path d="M249.527 42.0203L249.462 65.2267L244.836 65.2174L244.864 55.5278L233.66 55.4998L233.632 65.18H232.884H229.006L229.062 41.9736L233.688 41.983L233.66 51.3738L244.873 51.4018L244.901 42.0203H249.527Z" fill="#D2AB49"/>
<path d="M273.468 42.0477L273.459 46.2203L265.179 46.1923L265.132 65.2261L260.525 65.2167L260.572 46.183L252.265 46.1643L252.283 42.001L273.468 42.0477Z" fill="#D2AB49"/>
<path d="M300.792 53.6416C300.1 52.5495 299.054 51.7467 297.68 51.2332C296.418 50.7572 294.82 50.5145 292.942 50.5145L288.391 50.4958L288.41 42.0104L275.916 41.9824V43.2986C275.916 44.8762 277.196 46.1551 278.776 46.1644H283.812L283.766 65.2075L292.054 65.2262C294.381 65.2262 296.269 64.9181 297.661 64.2927C299.147 63.6299 300.231 62.6778 300.876 61.4736C301.493 60.3347 301.801 59.0092 301.801 57.5716C301.801 56.0127 301.465 54.6871 300.792 53.6323V53.6416ZM296.624 59.6813C296.297 60.1574 295.774 60.5214 295.054 60.7455C294.232 61.0162 293.092 61.1562 291.671 61.1562H288.363L288.382 54.5565L292.774 54.5751C293.344 54.5751 293.923 54.6125 294.493 54.6871C294.998 54.7431 295.475 54.8925 295.914 55.1072C296.26 55.2752 296.559 55.5459 296.792 55.9193C297.016 56.2834 297.129 56.8435 297.129 57.5623C297.129 58.4584 296.96 59.1772 296.615 59.6813H296.624Z" fill="#D2AB49"/>
<path d="M139.1 27.9148C139.1 29.7071 137.81 30.986 136.044 30.986C134.446 30.986 133.232 29.9218 133.026 28.3815H131.811V30.9206H130.718V24.9183H131.811V27.3734H133.035C133.26 25.8705 134.465 24.8623 136.044 24.8623C137.801 24.8623 139.1 26.1225 139.1 27.9241V27.9148ZM138.025 27.9148C138.025 26.6359 137.166 25.8051 136.054 25.8051C134.942 25.8051 134.082 26.6359 134.082 27.9148C134.082 29.1937 134.932 30.0338 136.054 30.0338C137.175 30.0338 138.025 29.203 138.025 27.9148Z" fill="#D2AB49"/>
<path d="M147.735 27.9148C147.735 29.7631 146.455 30.986 144.698 30.986C143.847 30.986 143.1 30.6592 142.595 30.0151V33.1236H141.502V24.9183H142.549V25.8705C143.034 25.1984 143.81 24.8623 144.689 24.8623C146.445 24.8623 147.726 26.0852 147.726 27.9241L147.735 27.9148ZM146.632 27.9148C146.632 26.6453 145.763 25.8051 144.604 25.8051C143.446 25.8051 142.586 26.6453 142.586 27.9148C142.586 29.1843 143.455 30.0338 144.604 30.0338C145.754 30.0338 146.632 29.1937 146.632 27.9148Z" fill="#D2AB49"/>
<path d="M150.146 24.9082H151.239V29.2769L154.921 24.9082H155.911V30.9105H154.818V26.5418L151.145 30.9105H150.146V24.9082Z" fill="#D2AB49"/>
<path d="M164.975 29.9584V32.3014H163.957V30.9105H158.929V32.3014H157.901V29.9584H158.219C159.079 29.9117 159.228 28.4554 159.312 26.9339L159.406 24.9082H164.069V29.9584H164.985H164.975ZM159.602 29.9584H162.966V25.8604H160.359L160.303 27.0179C160.256 28.2687 160.144 29.4916 159.602 29.9677V29.9584Z" fill="#D2AB49"/>
<path d="M167.228 24.9082H168.321V29.2769L172.003 24.9082H172.993V30.9105H171.9V26.5418L168.227 30.9105H167.228V24.9082Z" fill="#D2AB49"/>
<path d="M180.74 24.9087V30.9111H179.647V28.484C179.03 28.764 178.376 28.9414 177.703 28.9414C176.236 28.9414 175.357 28.288 175.357 26.8597V24.9087H176.451V26.7851C176.451 27.6345 177.021 28.0453 177.937 28.0453C178.479 28.0453 179.067 27.8959 179.647 27.6439V24.8994H180.74V24.9087Z" fill="#D2AB49"/>
<path d="M189.104 28.2692H184.226C184.366 29.324 185.217 30.0242 186.403 30.0242C187.104 30.0242 187.693 29.7908 188.142 29.296L188.74 29.9962C188.198 30.6309 187.366 30.967 186.366 30.967C184.422 30.967 183.133 29.6881 183.133 27.8958C183.133 26.1035 184.413 24.834 186.151 24.834C187.889 24.834 189.123 26.0755 189.123 27.9238C189.123 28.0172 189.113 28.1479 189.104 28.2505V28.2692ZM184.226 27.4851H188.086C187.973 26.4769 187.216 25.7675 186.161 25.7675C185.105 25.7675 184.348 26.4676 184.235 27.4851H184.226Z" fill="#D2AB49"/>
<path d="M191.094 27.9144C191.094 26.1221 192.421 24.8525 194.271 24.8525C195.346 24.8525 196.243 25.2913 196.719 26.1314L195.888 26.6635C195.504 26.0754 194.916 25.8047 194.252 25.8047C193.075 25.8047 192.187 26.6355 192.187 27.9144C192.187 29.1932 193.075 30.0334 194.252 30.0334C194.906 30.0334 195.495 29.7627 195.888 29.1746L196.719 29.6973C196.243 30.5375 195.346 30.9855 194.271 30.9855C192.421 30.9855 191.094 29.7067 191.094 27.9144Z" fill="#D2AB49"/>
<path d="M201.308 28.3714H200.056V30.9105H198.963V24.9082H200.056V27.4473H201.327L203.28 24.9082H204.448L202.168 27.7927L204.607 30.9105H203.327L201.308 28.3714Z" fill="#D2AB49"/>
<path d="M205.831 27.9144C205.831 26.1221 207.158 24.8525 208.962 24.8525C210.765 24.8525 212.083 26.1221 212.083 27.9144C212.083 29.7067 210.765 30.9855 208.962 30.9855C207.158 30.9855 205.831 29.7067 205.831 27.9144ZM210.98 27.9144C210.98 26.6355 210.12 25.8047 208.962 25.8047C207.803 25.8047 206.934 26.6355 206.934 27.9144C206.934 29.1932 207.803 30.0334 208.962 30.0334C210.12 30.0334 210.98 29.1932 210.98 27.9144Z" fill="#D2AB49"/>
<path d="M219.914 28.2692H215.036C215.176 29.324 216.026 30.0242 217.213 30.0242C217.914 30.0242 218.503 29.7908 218.951 29.296L219.549 29.9962C219.007 30.6309 218.176 30.967 217.176 30.967C215.232 30.967 213.942 29.6881 213.942 27.8958C213.942 26.1035 215.223 24.834 216.961 24.834C218.699 24.834 219.932 26.0755 219.932 27.9238C219.932 28.0172 219.923 28.1479 219.914 28.2505V28.2692ZM215.036 27.4851H218.895C218.783 26.4769 218.026 25.7675 216.97 25.7675C215.914 25.7675 215.157 26.4676 215.045 27.4851H215.036Z" fill="#D2AB49"/>
<path d="M231.071 27.2894V30.9113H230.043V30.1178C229.679 30.6592 229.016 30.9766 228.072 30.9766C226.707 30.9766 225.848 30.2485 225.848 29.2123C225.848 28.2509 226.474 27.4574 228.268 27.4574H229.987V27.2427C229.987 26.3279 229.455 25.7958 228.38 25.7958C227.67 25.7958 226.941 26.0478 226.474 26.4399L226.016 25.6278C226.642 25.133 227.539 24.8623 228.502 24.8623C230.146 24.8623 231.071 25.6558 231.071 27.2987V27.2894ZM229.978 29.0817V28.2415H228.296C227.221 28.2415 226.913 28.6616 226.913 29.175C226.913 29.7724 227.408 30.1458 228.24 30.1458C229.072 30.1458 229.707 29.7724 229.978 29.0817Z" fill="#D2AB49"/>
<path d="M238.295 25.8604H234.959V30.9105H233.865V24.9082H238.285V25.8604H238.295Z" fill="#D2AB49"/>
<path d="M245.396 28.2692H240.518C240.658 29.324 241.509 30.0242 242.695 30.0242C243.396 30.0242 243.985 29.7908 244.434 29.296L245.032 29.9962C244.49 30.6309 243.658 30.967 242.658 30.967C240.714 30.967 239.425 29.6881 239.425 27.8958C239.425 26.1035 240.705 24.834 242.443 24.834C244.181 24.834 245.415 26.0755 245.415 27.9238C245.415 28.0172 245.405 28.1479 245.396 28.2505V28.2692ZM240.518 27.4851H244.378C244.265 26.4769 243.508 25.7675 242.453 25.7675C241.397 25.7675 240.64 26.4676 240.527 27.4851H240.518Z" fill="#D2AB49"/>
<path d="M247.947 24.9082H249.041V27.4566H252.47V24.9082H253.563V30.9105H252.47V28.3994H249.041V30.9105H247.947V24.9082Z" fill="#D2AB49"/>
<path d="M260.993 25.8604H258.797V30.9105H257.704V25.8604H255.508V24.9082H260.993V25.8604Z" fill="#D2AB49"/>
<path d="M262.133 27.9144C262.133 26.1221 263.46 24.8525 265.31 24.8525C266.385 24.8525 267.282 25.2913 267.758 26.1314L266.927 26.6635C266.544 26.0754 265.955 25.8047 265.291 25.8047C264.114 25.8047 263.226 26.6355 263.226 27.9144C263.226 29.1932 264.114 30.0334 265.291 30.0334C265.945 30.0334 266.534 29.7627 266.927 29.1746L267.758 29.6973C267.282 30.5375 266.385 30.9855 265.31 30.9855C263.46 30.9855 262.133 29.7067 262.133 27.9144Z" fill="#D2AB49"/>
<path d="M274.402 25.8604H272.206V30.9105H271.113V25.8604H268.917V24.9082H274.402V25.8604Z" fill="#D2AB49"/>
<path d="M281.617 29.2582C281.617 30.3037 280.851 30.9105 279.244 30.9105H276.347V24.9082H279.141C280.561 24.9082 281.412 25.459 281.412 26.4485C281.412 27.0926 281.047 27.5593 280.449 27.7927C281.243 27.998 281.617 28.4928 281.617 29.2582ZM277.421 27.494H279.057C279.888 27.494 280.328 27.1859 280.328 26.6071C280.328 26.0284 279.888 25.7483 279.057 25.7483H277.421V27.494ZM280.533 29.1929C280.533 28.5675 280.141 28.2781 279.244 28.2781H277.431V30.0797H279.178C280.075 30.0797 280.542 29.809 280.542 29.1929H280.533Z" fill="#D2AB49"/>
<path d="M283.607 27.9144C283.607 26.1221 284.934 24.8525 286.738 24.8525C288.541 24.8525 289.859 26.1221 289.859 27.9144C289.859 29.7067 288.541 30.9855 286.738 30.9855C284.934 30.9855 283.607 29.7067 283.607 27.9144ZM288.756 27.9144C288.756 26.6355 287.897 25.8047 286.738 25.8047C285.579 25.8047 284.71 26.6355 284.71 27.9144C284.71 29.1932 285.579 30.0334 286.738 30.0334C287.897 30.0334 288.756 29.1932 288.756 27.9144Z" fill="#D2AB49"/>
<path d="M73.2663 65.0862H62.7534C58.5016 65.0862 54.5674 62.8178 52.4368 59.1399L32.0186 23.8075L40.7092 8.75977L73.2663 65.0862Z" fill="#D2AB49"/>
<path d="M10.2172 65.0861L18.6369 60.232L17.6276 58.4864L9.20801 63.3405L18.9359 46.5098C19.6461 47.7326 20.7861 48.5634 22.057 48.8995C23.3279 49.2355 24.7296 49.0955 25.9538 48.3861L26.1968 48.246L31.7943 57.9356L31.5419 58.0756C29.0843 59.4945 28.2433 62.631 29.6637 65.0861H10.2172Z" fill="#D2AB49"/>
<path d="M41.3444 58.3655H35.4572L27.374 44.4005L30.3176 39.3037L41.3444 58.3655Z" fill="#D2AB49"/>
</g>
<defs>
<clipPath id="clip0_4209_22336">
<rect width="292.584" height="56.4665" fill="white" transform="translate(9.20801 8.75977)"/>
</clipPath>
</defs>
</svg>
