<svg width="90" height="90" viewBox="0 0 90 90" fill="none" xmlns="http://www.w3.org/2000/svg">
<g id="Frame" clip-path="url(#clip0_4224_21266)">
<path id="Vector" d="M44.79 0.0001225C32.8917 0.0556486 21.4996 4.82121 13.1059 13.2543C4.71209 21.6875 -0.000129559 33.1017 2.67163e-09 45.0001C2.67165e-09 56.9349 4.74106 68.3808 13.1802 76.8199C21.6193 85.2591 33.0653 90.0001 45 90.0001C56.9347 90.0001 68.3807 85.2591 76.8198 76.8199C85.2589 68.3808 90 56.9349 90 45.0001C90 33.0654 85.2589 21.6195 76.8198 13.1803C68.3807 4.74118 56.9347 0.0001225 45 0.0001225C44.93 -4.08334e-05 44.86 -4.08334e-05 44.79 0.0001225ZM63.3975 27.0901C63.7725 27.0826 64.6012 27.1764 65.1413 27.6151C65.5001 27.9267 65.7289 28.3617 65.7825 28.8339C65.8425 29.1826 65.9175 29.9814 65.8575 30.6039C65.1825 37.7214 62.25 54.9864 60.7575 62.9551C60.1275 66.3301 58.8862 67.4589 57.6825 67.5676C55.0725 67.8114 53.0888 65.8426 50.5575 64.1851C46.5975 61.5864 44.3587 59.9701 40.515 57.4351C36.0713 54.5101 38.9513 52.8976 41.4825 50.2726C42.1463 49.5826 53.6588 39.1089 53.8838 38.1601C53.91 38.0401 53.9362 37.5976 53.6737 37.3651C53.4112 37.1326 53.0213 37.2114 52.74 37.2751C52.3425 37.3651 46.0163 41.5501 33.7612 49.8189C31.9613 51.0564 30.3375 51.6564 28.8787 51.6189C27.2738 51.5889 24.1838 50.7151 21.885 49.9689C19.065 49.0501 16.8263 48.5664 17.0212 47.0101C17.1225 46.2001 18.24 45.3714 20.37 44.5239C33.4875 38.8089 42.2325 35.0401 46.6125 33.2214C59.1075 28.0239 61.7062 27.1201 63.3975 27.0901Z" fill="#26A5E4"/>
</g>
<defs>
<clipPath id="clip0_4224_21266">
<rect width="90" height="90" fill="white"/>
</clipPath>
</defs>
</svg>
