<svg width="90" height="90" viewBox="0 0 90 90" fill="none" xmlns="http://www.w3.org/2000/svg">
<g id="Frame">
<path id="Vector" d="M88.1175 23.1967C87.609 21.2815 86.6063 19.5335 85.2098 18.1277C83.8132 16.7219 82.0718 15.7077 80.16 15.1867C73.1437 13.293 45 13.293 45 13.293C45 13.293 16.8562 13.293 9.83625 15.1867C7.92528 15.7087 6.18485 16.7232 4.78904 18.1289C3.39323 19.5346 2.39097 21.2821 1.8825 23.1967C0 30.2617 0 44.9992 0 44.9992C0 44.9992 0 59.7367 1.8825 66.8017C2.39095 68.7169 3.39366 70.465 4.79022 71.8707C6.18678 73.2765 7.92817 74.2907 9.84 74.8117C16.8563 76.7055 45 76.7055 45 76.7055C45 76.7055 73.1438 76.7055 80.1637 74.8117C82.0758 74.291 83.8173 73.277 85.2139 71.8711C86.6106 70.4653 87.6132 68.7171 88.1213 66.8017C90 59.7367 90 44.9992 90 44.9992C90 44.9992 90 30.2617 88.1175 23.1967ZM35.7938 58.3792V31.6192L59.3175 44.9992L35.7938 58.3792Z" fill="#FF0000"/>
</g>
</svg>
