<svg width="65" height="65" viewBox="0 0 65 65" fill="none" xmlns="http://www.w3.org/2000/svg">
<g id="noun-task-5239954 1" clip-path="url(#clip0_4209_21899)">
<path id="Vector" d="M31 17C29.9391 17 28.9217 17.4214 28.1716 18.1716C27.4214 18.9217 27 19.9391 27 21V29.42C26.9977 31.5092 27.5524 33.5612 28.6071 35.3646C29.6617 37.168 31.1781 38.6576 33 39.68L38 42.47C38.4596 42.7248 38.9649 42.8865 39.4871 42.946C40.0092 43.0055 40.5379 42.9615 41.0431 42.8167C41.5482 42.6718 42.0199 42.4289 42.4312 42.1017C42.8424 41.7746 43.1852 41.3696 43.44 40.91C43.6948 40.4504 43.8565 39.9451 43.916 39.4229C43.9755 38.9008 43.9315 38.3721 43.7867 37.8669C43.6418 37.3618 43.3989 36.8901 43.0717 36.4788C42.7446 36.0676 42.3396 35.7248 41.88 35.47L36.88 32.68C36.3065 32.3512 35.8304 31.8763 35.5001 31.3037C35.1699 30.731 34.9973 30.0811 35 29.42V21C35 19.9391 34.5786 18.9217 33.8284 18.1716C33.0783 17.4214 32.0609 17 31 17Z" fill="#F3AD33"/>
<path id="Vector_2" d="M58.1695 46.1703L48.5795 55.7603C48.4216 55.9101 48.2122 55.9936 47.9945 55.9936C47.7768 55.9936 47.5675 55.9101 47.4095 55.7603L43.8195 52.1703C43.4479 51.7986 43.0067 51.5038 42.5211 51.3027C42.0355 51.1016 41.5151 50.998 40.9895 50.998C40.464 50.998 39.9435 51.1016 39.4579 51.3027C38.9724 51.5038 38.5312 51.7986 38.1595 52.1703C37.7879 52.5419 37.4931 52.9831 37.292 53.4687C37.0908 53.9543 36.9873 54.4747 36.9873 55.0003C36.9873 55.5259 37.0908 56.0463 37.292 56.5319C37.4931 57.0174 37.7879 57.4586 38.1595 57.8303L41.7495 61.4203C43.4052 63.0739 45.6495 64.0028 47.9895 64.0028C50.3296 64.0028 52.5739 63.0739 54.2295 61.4203L63.8195 51.8303C64.1912 51.4586 64.486 51.0174 64.6871 50.5319C64.8882 50.0463 64.9918 49.5259 64.9918 49.0003C64.9918 48.4747 64.8882 47.9543 64.6871 47.4687C64.486 46.9831 64.1912 46.5419 63.8195 46.1703C63.4479 45.7986 63.0067 45.5038 62.5211 45.3027C62.0355 45.1016 61.5151 44.998 60.9895 44.998C60.4639 44.998 59.9435 45.1016 59.4579 45.3027C58.9724 45.5038 58.5312 45.7986 58.1595 46.1703H58.1695Z" fill="#F3AD33"/>
<path id="Vector_3" d="M33.0003 1.0126e-06C25.1085 -0.00198325 17.4942 2.91234 11.6205 8.18306C5.74674 13.4538 2.02782 20.7091 1.17823 28.5551C0.328644 36.4011 2.40831 44.2843 7.01767 50.6901C11.627 57.096 18.441 61.5726 26.1503 63.26C26.6638 63.3723 27.1943 63.3823 27.7117 63.2896C28.229 63.1968 28.723 63.003 29.1655 62.7194C29.608 62.4357 29.9903 62.0676 30.2905 61.6362C30.5907 61.2048 30.803 60.7185 30.9153 60.205C31.0276 59.6915 31.0376 59.161 30.9449 58.6436C30.8521 58.1263 30.6584 57.6323 30.3747 57.1898C30.091 56.7473 29.7229 56.3651 29.2915 56.0648C28.8601 55.7646 28.3738 55.5523 27.8603 55.44C23.4388 54.4706 19.3816 52.2705 16.1571 49.0938C12.9325 45.9171 10.672 41.8932 9.63663 37.4867C8.60122 33.0802 8.83306 28.4707 10.3054 24.1904C11.7777 19.91 14.4305 16.1333 17.9576 13.2962C21.4846 10.459 25.7421 8.67718 30.2386 8.1563C34.735 7.63542 39.2871 8.39675 43.3693 10.3524C47.4516 12.308 50.8976 15.3783 53.3095 19.2087C55.7214 23.0391 57.0009 27.4735 57.0003 32C57.0003 33.0609 57.4217 34.0783 58.1719 34.8284C58.922 35.5786 59.9394 36 61.0003 36C62.0612 36 63.0786 35.5786 63.8287 34.8284C64.5789 34.0783 65.0003 33.0609 65.0003 32C65.0003 23.5131 61.6289 15.3737 55.6277 9.37258C49.6266 3.37142 41.4872 1.0126e-06 33.0003 1.0126e-06Z" fill="#F3AD33"/>
</g>
<defs>
<clipPath id="clip0_4209_21899">
<rect width="65" height="65" fill="white"/>
</clipPath>
</defs>
</svg>
