<svg width="65" height="65" viewBox="0 0 65 65" fill="none" xmlns="http://www.w3.org/2000/svg">
<g id="noun-loss-5416187 1">
<path id="Vector" d="M15 47V19C15 17.9391 14.5786 16.9217 13.8284 16.1716C13.0783 15.4214 12.0609 15 11 15C9.93913 15 8.92172 15.4214 8.17157 16.1716C7.42143 16.9217 7 17.9391 7 19V47C7 48.0609 7.42143 49.0783 8.17157 49.8284C8.92172 50.5786 9.93913 51 11 51C12.0609 51 13.0783 50.5786 13.8284 49.8284C14.5786 49.0783 15 48.0609 15 47Z" fill="#F3AD33"/>
<path id="Vector_2" d="M33 32V19C33 17.9391 32.5786 16.9217 31.8284 16.1716C31.0783 15.4214 30.0609 15 29 15C27.9391 15 26.9217 15.4214 26.1716 16.1716C25.4214 16.9217 25 17.9391 25 19V32C25 33.0609 25.4214 34.0783 26.1716 34.8284C26.9217 35.5786 27.9391 36 29 36C30.0609 36 31.0783 35.5786 31.8284 34.8284C32.5786 34.0783 33 33.0609 33 32Z" fill="#F3AD33"/>
<path id="Vector_3" d="M4 8H56C57.0609 8 58.0783 7.57857 58.8284 6.82843C59.5786 6.07828 60 5.06087 60 4C60 2.93913 59.5786 1.92172 58.8284 1.17157C58.0783 0.421428 57.0609 0 56 0H4C2.93913 0 1.92172 0.421428 1.17157 1.17157C0.421428 1.92172 0 2.93913 0 4C0 5.06087 0.421428 6.07828 1.17157 6.82843C1.92172 7.57857 2.93913 8 4 8Z" fill="#F3AD33"/>
<path id="Vector_4" d="M62.2798 44.7095C61.4667 44.1831 60.4952 43.957 59.5332 44.0702C58.5711 44.1834 57.6787 44.6288 57.0098 45.3295L51.0098 51.3295V18.9995C51.0125 18.4398 50.8977 17.8856 50.6727 17.3731C50.4478 16.8605 50.1177 16.4008 49.7039 16.0238C49.2902 15.6467 48.8018 15.3608 48.2706 15.1843C47.7393 15.0079 47.177 14.9449 46.6199 14.9995C45.6073 15.1231 44.6766 15.618 44.0078 16.3883C43.3391 17.1586 42.98 18.1496 42.9998 19.1695V51.3395L36.8998 45.2495C36.2506 44.5821 35.3922 44.1575 34.4677 44.0465C33.5432 43.9355 32.6086 44.1448 31.8198 44.6395C31.3189 44.9639 30.8969 45.3963 30.5848 45.905C30.2727 46.4136 30.0783 46.9857 30.016 47.5792C29.9537 48.1728 30.025 48.7727 30.2246 49.3351C30.4243 49.8975 30.7472 50.4082 31.1698 50.8295L39.0498 58.7095C41.1592 60.8163 44.0186 61.9996 46.9998 61.9996C49.9811 61.9996 52.8405 60.8163 54.9498 58.7095L62.8298 50.8295C63.2447 50.4153 63.5635 49.915 63.7636 49.364C63.9636 48.8129 64.0401 48.2247 63.9877 47.6408C63.9352 47.0569 63.755 46.4917 63.4599 45.9851C63.1648 45.4786 62.7619 45.0431 62.2798 44.7095Z" fill="#F3AD33"/>
</g>
</svg>
