<svg width="65" height="65" viewBox="0 0 65 65" fill="none" xmlns="http://www.w3.org/2000/svg">
<g id="noun-great-5239971 1">
<path id="Vector" d="M0 28V60C0 61.0609 0.421428 62.0783 1.17157 62.8284C1.92172 63.5786 2.93913 64 4 64C5.06087 64 6.07828 63.5786 6.82843 62.8284C7.57857 62.0783 8 61.0609 8 60V28C8 26.9391 7.57857 25.9217 6.82843 25.1716C6.07828 24.4214 5.06087 24 4 24C2.93913 24 1.92172 24.4214 1.17157 25.1716C0.421428 25.9217 0 26.9391 0 28Z" fill="#F3AD33"/>
<path id="Vector_2" d="M48 12.49V11.87C47.9974 8.7227 46.7459 5.70505 44.5204 3.47957C42.295 1.25409 39.2773 0.00264961 36.13 1.47689e-06H35C33.6483 -0.000819743 32.3185 0.34085 31.1346 0.993116C29.9508 1.64538 28.9515 2.58697 28.23 3.73L16.23 22.73C15.425 24.0086 14.9985 25.4891 15 27V54.29C15 56.8653 16.023 59.335 17.844 61.156C19.665 62.977 22.1348 64 24.71 64H44.42C46.7317 63.999 48.994 63.3303 50.9348 62.0743C52.8755 60.8183 54.4122 59.0285 55.36 56.92L62.72 40.57C64.1125 37.4683 64.3813 33.9784 63.48 30.7C62.5817 27.5959 60.6935 24.8704 58.1029 22.9388C55.5123 21.0071 52.3614 19.9751 49.13 20H46.41L47.6 15.55C47.8655 14.5517 47.9999 13.523 48 12.49ZM49.13 28C50.6112 27.9747 52.0603 28.4324 53.2583 29.3038C54.4563 30.1752 55.338 31.413 55.77 32.83C56.1801 34.3108 56.0598 35.8884 55.43 37.29L48.06 53.64C47.7445 54.3418 47.2333 54.9377 46.5877 55.3563C45.9421 55.7749 45.1894 55.9984 44.42 56H24.71C24.2565 56 23.8215 55.8198 23.5009 55.4992C23.1802 55.1785 23 54.7435 23 54.29V27L35 8H36.14C37.1647 8.00265 38.1464 8.41155 38.87 9.13703C39.5936 9.86251 40 10.8453 40 11.87V12.5C40.0001 12.8376 39.9564 13.1737 39.87 13.5L37.15 23.7C37.0171 24.2068 37.0021 24.7373 37.1061 25.2507C37.21 25.7642 37.4303 26.2471 37.7498 26.6622C38.0694 27.0774 38.4798 27.4138 38.9496 27.6457C39.4194 27.8776 39.9361 27.9988 40.46 28H49.13Z" fill="#F3AD33"/>
</g>
</svg>
