<svg width="65" height="65" viewBox="0 0 65 65" fill="none" xmlns="http://www.w3.org/2000/svg">
<g id="noun-smile-5240217 (1) 1">
<path id="Vector" d="M1.66974 42.14C2.01315 43.1043 2.05845 44.1496 1.79974 45.14L0.489738 49.73C0.0549057 51.1869 -0.0806615 52.7166 0.0911942 54.2272C0.26305 55.7379 0.738775 57.1981 1.48974 58.52C2.72621 60.6243 4.62739 62.2576 6.894 63.1628C9.1606 64.068 11.6639 64.1936 14.0097 63.52L18.5597 62.22C19.5881 61.8955 20.6914 61.8955 21.7197 62.22C25.0239 63.3797 28.498 63.9813 31.9997 64C32.9997 64 33.9997 64 35.0597 63.85C42.5663 63.0762 49.5643 59.6961 54.8369 54.2973C60.1096 48.8986 63.3234 41.8228 63.9197 34.3C64.2448 29.9131 63.6601 25.5064 62.2025 21.356C60.7448 17.2056 58.4455 13.401 55.4487 10.1808C52.4519 6.96053 48.8222 4.39405 44.7872 2.64217C40.7521 0.890293 36.3987 -0.00919976 31.9997 7.09383e-05C31.2297 7.09383e-05 30.4497 7.08624e-05 29.6997 0.0800708C22.177 0.676361 15.1011 3.89023 9.70242 9.16288C4.3037 14.4355 0.923571 21.4335 0.149738 28.94C-0.284223 33.398 0.233881 37.8974 1.66974 42.14ZM8.10974 29.7C8.68842 24.0721 11.2215 18.825 15.2683 14.8713C19.3152 10.9177 24.6198 8.50751 30.2597 8.06006C30.8297 8.00006 31.4197 8.00006 31.9997 8.00006C37.117 7.96685 42.1069 9.59505 46.2197 12.6401C50.8482 16.0272 54.1106 20.96 55.4161 26.5448C56.7216 32.1297 55.9839 37.9975 53.3365 43.0854C50.6892 48.1734 46.3073 52.145 40.9845 54.2811C35.6617 56.4172 29.7499 56.5764 24.3197 54.73C22.9896 54.2593 21.5906 54.0126 20.1797 54C18.8908 54.0022 17.6085 54.184 16.3697 54.54L11.8197 55.84C11.1738 56.0243 10.4847 55.9866 9.86282 55.7327C9.24092 55.4789 8.7222 55.0237 8.38974 54.44C8.00632 53.6846 7.93103 52.8098 8.17974 52L9.48974 47.41C10.2062 44.8531 10.1225 42.138 9.24974 39.63C8.16814 36.4387 7.7795 33.0534 8.10974 29.7Z" fill="#F3AD33"/>
<path id="Vector_2" d="M22 30C24.2091 30 26 28.2091 26 26C26 23.7909 24.2091 22 22 22C19.7909 22 18 23.7909 18 26C18 28.2091 19.7909 30 22 30Z" fill="#F3AD33"/>
<path id="Vector_3" d="M42 30C44.2091 30 46 28.2091 46 26C46 23.7909 44.2091 22 42 22C39.7909 22 38 23.7909 38 26C38 28.2091 39.7909 30 42 30Z" fill="#F3AD33"/>
<path id="Vector_4" d="M23.7801 35.6691C23.3425 35.9604 22.9667 36.3352 22.6741 36.7718C22.3815 37.2085 22.1778 37.6986 22.0747 38.214C21.9717 38.7295 21.9712 39.2602 22.0733 39.7758C22.1755 40.2914 22.3783 40.7819 22.6701 41.2191C23.6502 42.6916 24.9795 43.8986 26.5393 44.7326C28.0992 45.5667 29.8412 46.0017 31.6101 45.9991H32.4001C34.1672 46.0001 35.9072 45.5642 37.4652 44.7303C39.0232 43.8963 40.3509 42.6901 41.3301 41.2191C41.6216 40.7818 41.8241 40.2913 41.9261 39.7758C42.0281 39.2602 42.0276 38.7296 41.9245 38.2142C41.8214 37.6988 41.6179 37.2088 41.3254 36.7721C41.033 36.3354 40.6574 35.9606 40.2201 35.6691C39.7828 35.3776 39.2923 35.175 38.7767 35.073C38.2612 34.971 37.7305 34.9716 37.2152 35.0746C36.6998 35.1777 36.2098 35.3813 35.7731 35.6737C35.3364 35.9662 34.9616 36.3418 34.6701 36.7791C34.4205 37.155 34.0816 37.4633 33.6837 37.6762C33.2858 37.8891 32.8413 38 32.3901 37.9991H31.6001C31.1488 38 30.7043 37.8891 30.3065 37.6762C29.9086 37.4633 29.5697 37.155 29.3201 36.7791C29.0287 36.3416 28.654 35.9658 28.2173 35.6731C27.7806 35.3805 27.2906 35.1769 26.7751 35.0738C26.2597 34.9707 25.729 34.9702 25.2134 35.0723C24.6977 35.1745 24.2073 35.3773 23.7701 35.6691H23.7801Z" fill="#F3AD33"/>
</g>
</svg>
